<?xml version="1.0" encoding="UTF-8"?>
<svg width="22px" height="22px" viewBox="0 0 22 22" version="1.1" xmlns="http://www.w3.org/2000/svg" xmlns:xlink="http://www.w3.org/1999/xlink">
    <title>Icon / Notification / Off</title>
    <g id="Icon-/-Notification-/-Off" stroke="none" stroke-width="1" fill="none" fill-rule="evenodd">
        <path d="M2.58643437,20.817283 C2.41120383,21.0307048 2.09613885,21.0616649 1.88271704,20.8864344 C1.69300877,20.7306739 1.64746773,20.4644269 1.76275959,20.257291 L1.81356563,20.182717 L17.4135656,1.18271704 C17.5887962,0.969295231 17.9038611,0.938335088 18.117283,1.11356563 C18.3069912,1.26932611 18.3525323,1.53557306 18.2372404,1.74270904 L18.1864344,1.81728296 L16.4124566,3.97855938 C17.3497601,5.06382055 17.967303,6.43618443 18.1145679,7.95302031 L18.1380168,8.26400255 L18.492,14.835 L20.4160251,17.7226499 C20.6058908,18.0074484 20.458033,18.3751158 20.1604383,18.4743681 L20.0830289,18.4933859 L20.0000332,18.5 L13.828,18.5 L13.7913907,18.6015735 C13.3929878,19.6121088 12.4674384,20.3406679 11.3728454,20.4769381 L11.178,20.4947743 L11,20.5 C9.81203205,20.5 8.76719123,19.8044779 8.28388858,18.7760062 L8.20860931,18.6015735 L8.171,18.5 L4.48798544,18.4999854 L2.58643437,20.817283 Z M11,1.5 C12.2007096,1.5 13.3351366,1.79684122 14.3316651,2.32266011 L3.45275019,15.571 L3.86198323,8.26400255 C4.05753505,4.63232587 6.93990285,1.75433284 10.5188534,1.51597341 L10.7584603,1.50401405 L11,1.5 Z" id="Combined-Shape" fill="#999999" fill-rule="nonzero"></path>
    </g>
</svg>