<?xml version="1.0" encoding="UTF-8"?>
<svg width="22px" height="22px" viewBox="0 0 22 22" version="1.1" xmlns="http://www.w3.org/2000/svg" xmlns:xlink="http://www.w3.org/1999/xlink">
    <title>Icon / Notification / On</title>
    <g id="Icon-/-Notification-/-On" stroke="none" stroke-width="1" fill="none" fill-rule="evenodd">
        <path d="M10.7584603,1.50401405 C7.0693349,1.62679423 4.06188064,4.55162195 3.86198323,8.26400255 L3.507,14.835 L1.58397485,17.7226499 L1.54343556,17.7953727 C1.39731138,18.116224 1.62915793,18.4999754 1.99996683,18.5 L8.171,18.5 L8.20860931,18.6015735 C8.65153955,19.7250509 9.74603383,20.5 11,20.5 L11.178,20.4947743 C12.3567262,20.425405 13.3695524,19.671552 13.7913907,18.6015735 L13.828,18.5 L20.0000332,18.5 L20.0830289,18.4933859 C20.4310447,18.4369692 20.6217129,18.0311816 20.4160251,17.7226499 L18.492,14.835 L18.1380168,8.26400255 C17.9337738,4.47091802 14.7985794,1.5 11,1.5 L10.7584603,1.50401405 Z" id="Path-Copy" fill="#999999" fill-rule="nonzero"></path>
    </g>
</svg>